<mxfile host="app.diagrams.net" modified="2023-11-17T03:24:37.205Z" agent="Mozilla/5.0 (Windows NT 10.0; Win64; x64) AppleWebKit/537.36 (KHTML, like Gecko) Chrome/119.0.0.0 Safari/537.36" version="22.1.2" etag="bd3Yyg0At8a6TvazPXPD" type="github">
  <diagram name="第 1 页" id="SbkglB7-vO2ijKefrnUV">
    <mxGraphModel>
      <root>
        <mxCell id="0" />
        <mxCell id="1" parent="0" />
      </root>
    </mxGraphModel>
  </diagram>
</mxfile>
